<?xml version="1.0" encoding="UTF-8"?>
<svg width="287px" height="64px" viewBox="0 0 287 64" version="1.1" xmlns="http://www.w3.org/2000/svg" xmlns:xlink="http://www.w3.org/1999/xlink">
    <title>urstup.id logo</title>
    <g id="Page-1" stroke="none" stroke-width="1" fill="none" fill-rule="evenodd">
        <g id="URSTUPID-LANDING" transform="translate(-367.000000, -79.000000)">
            <g id="urstup.id-logo" transform="translate(367.492691, 79.616000)">
                <path d="M11.52,49.152 C12.672,49.152 13.7386667,49.0026667 14.72,48.704 C15.7013333,48.4053333 16.576,48.0213333 17.344,47.552 C18.112,47.0826667 18.7626667,46.5493333 19.296,45.952 C19.8293333,45.3546667 20.2666667,44.7573333 20.608,44.16 L20.608,44.16 L20.736,44.16 L20.736,48.384 L29.952,48.384 L29.952,17.28 L20.352,17.28 L20.352,32.768 C20.352,33.792 20.288,34.7733333 20.16,35.712 C20.032,36.6506667 19.7653333,37.4933333 19.36,38.24 C18.9546667,38.9866667 18.368,39.584 17.6,40.032 C16.832,40.48 15.8293333,40.704 14.592,40.704 C13.3546667,40.704 12.4053333,40.448 11.744,39.936 C11.0826667,39.424 10.592,38.7626667 10.272,37.952 C9.952,37.1413333 9.76,36.256 9.696,35.296 C9.632,34.336 9.6,33.408 9.6,32.512 L9.6,32.512 L9.6,17.28 L0,17.28 L0,34.432 C0,36.5226667 0.138666667,38.464 0.416,40.256 C0.693333333,42.048 1.248,43.6053333 2.08,44.928 C2.912,46.2506667 4.08533333,47.2853333 5.6,48.032 C7.11466667,48.7786667 9.088,49.152 11.52,49.152 Z M49.1554021,48.384 L49.1554021,35.392 C49.1554021,33.856 49.2407354,32.448 49.4114021,31.168 C49.5820687,29.888 49.9554021,28.7893333 50.5314021,27.872 C51.1074021,26.9546667 51.9287354,26.24 52.9954021,25.728 C54.0620687,25.216 55.5127354,24.96 57.3474021,24.96 C58.0727354,24.96 58.7660687,25.0133333 59.4274021,25.12 C60.0887354,25.2266667 60.7607354,25.3866667 61.4434021,25.6 L61.4434021,25.6 L61.4434021,16.832 C60.9740687,16.704 60.4620687,16.6186667 59.9074021,16.576 C59.3527354,16.5333333 58.7980687,16.512 58.2434021,16.512 C56.1100687,16.512 54.3394021,16.992 52.9314021,17.952 C51.5234021,18.912 50.3074021,20.352 49.2834021,22.272 L49.2834021,22.272 L49.1554021,22.272 L49.1554021,17.28 L39.5554021,17.28 L39.5554021,48.384 L49.1554021,48.384 Z M78.7908041,49.152 C80.4548041,49.152 82.1401374,48.992 83.8468041,48.672 C85.5534708,48.352 87.0894708,47.7973333 88.4548041,47.008 C89.8201374,46.2186667 90.9401374,45.1733333 91.8148041,43.872 C92.6894708,42.5706667 93.1268041,40.9173333 93.1268041,38.912 C93.1268041,36.9493333 92.7321374,35.3813333 91.9428041,34.208 C91.1534708,33.0346667 90.1508041,32.1066667 88.9348041,31.424 C87.7188041,30.7413333 86.4174708,30.24 85.0308041,29.92 C83.6441374,29.6 82.3428041,29.3013333 81.1268041,29.024 C79.9108041,28.7466667 78.9081374,28.4266667 78.1188041,28.064 C77.3294708,27.7013333 76.9348041,27.136 76.9348041,26.368 C76.9348041,25.4293333 77.3188041,24.768 78.0868041,24.384 C78.8548041,24 79.6441374,23.808 80.4548041,23.808 C82.7588041,23.808 84.6148041,24.6826667 86.0228041,26.432 L86.0228041,26.432 L91.9108041,20.608 C90.4601374,19.072 88.6894708,18.0053333 86.5988041,17.408 C84.5081374,16.8106667 82.4388041,16.512 80.3908041,16.512 C78.7694708,16.512 77.1694708,16.7146667 75.5908041,17.12 C74.0121374,17.5253333 72.6148041,18.1546667 71.3988041,19.008 C70.1828041,19.8613333 69.2014708,20.9493333 68.4548041,22.272 C67.7081374,23.5946667 67.3348041,25.1733333 67.3348041,27.008 C67.3348041,28.9706667 67.7294708,30.5386667 68.5188041,31.712 C69.3081374,32.8853333 70.3108041,33.792 71.5268041,34.432 C72.7428041,35.072 74.0441374,35.552 75.4308041,35.872 C76.8174708,36.192 78.1188041,36.4906667 79.3348041,36.768 C80.5508041,37.0453333 81.5534708,37.3866667 82.3428041,37.792 C83.1321374,38.1973333 83.5268041,38.8053333 83.5268041,39.616 C83.5268041,40.4693333 83.0788041,41.056 82.1828041,41.376 C81.2868041,41.696 80.2841374,41.856 79.1748041,41.856 C77.7241374,41.856 76.4548041,41.568 75.3668041,40.992 C74.2788041,40.416 73.2868041,39.5733333 72.3908041,38.464 L72.3908041,38.464 L66.5668041,44.928 C68.1028041,46.5066667 69.9801374,47.6053333 72.1988041,48.224 C74.4174708,48.8426667 76.6148041,49.152 78.7908041,49.152 Z M115.338206,49.152 C116.44754,49.152 117.578206,49.088 118.730206,48.96 C119.882206,48.832 120.99154,48.576 122.058206,48.192 L122.058206,48.192 L122.058206,40.192 C121.63154,40.576 121.002206,40.8213333 120.170206,40.928 C119.338206,41.0346667 118.666206,41.088 118.154206,41.088 C117.130206,41.088 116.308873,40.9493333 115.690206,40.672 C115.07154,40.3946667 114.612873,40 114.314206,39.488 C114.01554,38.976 113.82354,38.368 113.738206,37.664 C113.652873,36.96 113.610206,36.1813333 113.610206,35.328 L113.610206,35.328 L113.610206,24.96 L122.058206,24.96 L122.058206,17.28 L113.610206,17.28 L113.610206,8.064 L104.010206,8.064 L104.010206,17.28 L97.8662062,17.28 L97.8662062,24.96 L104.010206,24.96 L104.010206,39.744 C104.010206,41.4506667 104.298206,42.9013333 104.874206,44.096 C105.450206,45.2906667 106.250206,46.2613333 107.274206,47.008 C108.298206,47.7546667 109.492873,48.2986667 110.858206,48.64 C112.22354,48.9813333 113.716873,49.152 115.338206,49.152 Z M141.261608,49.152 C142.413608,49.152 143.480275,49.0026667 144.461608,48.704 C145.442942,48.4053333 146.317608,48.0213333 147.085608,47.552 C147.853608,47.0826667 148.504275,46.5493333 149.037608,45.952 C149.570942,45.3546667 150.008275,44.7573333 150.349608,44.16 L150.349608,44.16 L150.477608,44.16 L150.477608,48.384 L159.693608,48.384 L159.693608,17.28 L150.093608,17.28 L150.093608,32.768 C150.093608,33.792 150.029608,34.7733333 149.901608,35.712 C149.773608,36.6506667 149.506942,37.4933333 149.101608,38.24 C148.696275,38.9866667 148.109608,39.584 147.341608,40.032 C146.573608,40.48 145.570942,40.704 144.333608,40.704 C143.096275,40.704 142.146942,40.448 141.485608,39.936 C140.824275,39.424 140.333608,38.7626667 140.013608,37.952 C139.693608,37.1413333 139.501608,36.256 139.437608,35.296 C139.373608,34.336 139.341608,33.408 139.341608,32.512 L139.341608,32.512 L139.341608,17.28 L129.741608,17.28 L129.741608,34.432 C129.741608,36.5226667 129.880275,38.464 130.157608,40.256 C130.434942,42.048 130.989608,43.6053333 131.821608,44.928 C132.653608,46.2506667 133.826942,47.2853333 135.341608,48.032 C136.856275,48.7786667 138.829608,49.152 141.261608,49.152 Z M179.79301,62.976 L179.79301,45.056 L179.92101,45.056 C181.030344,46.5493333 182.44901,47.6053333 184.17701,48.224 C185.90501,48.8426667 187.771677,49.152 189.77701,49.152 C191.995677,49.152 193.979677,48.6933333 195.72901,47.776 C197.478344,46.8586667 198.96101,45.632 200.17701,44.096 C201.39301,42.56 202.331677,40.8 202.99301,38.816 C203.654344,36.832 203.98501,34.752 203.98501,32.576 C203.98501,30.2293333 203.622344,28.0746667 202.89701,26.112 C202.171677,24.1493333 201.13701,22.4533333 199.79301,21.024 C198.44901,19.5946667 196.838344,18.4853333 194.96101,17.696 C193.083677,16.9066667 190.99301,16.512 188.68901,16.512 C187.579677,16.512 186.534344,16.6613333 185.55301,16.96 C184.571677,17.2586667 183.66501,17.6426667 182.83301,18.112 C182.00101,18.5813333 181.275677,19.104 180.65701,19.68 C180.038344,20.256 179.53701,20.8213333 179.15301,21.376 L179.15301,21.376 L179.02501,21.376 L179.02501,17.28 L170.19301,17.28 L170.19301,62.976 L179.79301,62.976 Z M186.70501,40.704 C184.27301,40.704 182.38501,39.9786667 181.04101,38.528 C179.69701,37.0773333 179.02501,35.1786667 179.02501,32.832 C179.02501,30.4853333 179.69701,28.5866667 181.04101,27.136 C182.38501,25.6853333 184.27301,24.96 186.70501,24.96 C189.13701,24.96 191.02501,25.6853333 192.36901,27.136 C193.71301,28.5866667 194.38501,30.4853333 194.38501,32.832 C194.38501,35.1786667 193.71301,37.0773333 192.36901,38.528 C191.02501,39.9786667 189.13701,40.704 186.70501,40.704 Z M239.127814,13.056 C240.663814,13.056 241.975814,12.512 243.063814,11.424 C244.151814,10.336 244.695814,9.024 244.695814,7.488 C244.695814,5.952 244.151814,4.64 243.063814,3.552 C241.975814,2.464 240.663814,1.92 239.127814,1.92 C237.591814,1.92 236.279814,2.464 235.191814,3.552 C234.103814,4.64 233.559814,5.952 233.559814,7.488 C233.559814,9.024 234.103814,10.336 235.191814,11.424 C236.279814,12.512 237.591814,13.056 239.127814,13.056 Z M243.927814,48.384 L243.927814,17.28 L234.327814,17.28 L234.327814,48.384 L243.927814,48.384 Z M267.803216,49.152 C268.869883,49.152 269.90455,49.0026667 270.907216,48.704 C271.909883,48.4053333 272.827216,48.0213333 273.659216,47.552 C274.491216,47.0826667 275.21655,46.56 275.835216,45.984 C276.453883,45.408 276.955216,44.8426667 277.339216,44.288 L277.339216,44.288 L277.467216,44.288 L277.467216,48.384 L286.299216,48.384 L286.299216,-7.10542736e-15 L276.699216,-7.10542736e-15 L276.699216,20.608 L276.571216,20.608 C275.461883,19.1146667 274.043216,18.0586667 272.315216,17.44 C270.587216,16.8213333 268.72055,16.512 266.715216,16.512 C264.49655,16.512 262.51255,16.9706667 260.763216,17.888 C259.013883,18.8053333 257.531216,20.032 256.315216,21.568 C255.099216,23.104 254.16055,24.864 253.499216,26.848 C252.837883,28.832 252.507216,30.912 252.507216,33.088 C252.507216,35.4346667 252.869883,37.5893333 253.595216,39.552 C254.32055,41.5146667 255.355216,43.2106667 256.699216,44.64 C258.043216,46.0693333 259.653883,47.1786667 261.531216,47.968 C263.40855,48.7573333 265.499216,49.152 267.803216,49.152 Z M269.787216,40.704 C267.355216,40.704 265.467216,39.9786667 264.123216,38.528 C262.779216,37.0773333 262.107216,35.1786667 262.107216,32.832 C262.107216,30.4853333 262.779216,28.5866667 264.123216,27.136 C265.467216,25.6853333 267.355216,24.96 269.787216,24.96 C272.219216,24.96 274.107216,25.6853333 275.451216,27.136 C276.795216,28.5866667 277.467216,30.4853333 277.467216,32.832 C277.467216,35.1786667 276.795216,37.0773333 275.451216,38.528 C274.107216,39.9786667 272.219216,40.704 269.787216,40.704 Z" id="urstupid" fill="#FFFFFF" fill-rule="nonzero"></path>
                <circle id="Oval" stroke="#FFFFFF" stroke-width="4" fill="#FF8383" cx="217.507309" cy="52.884" r="8.5"></circle>
            </g>
        </g>
    </g>
</svg>